<svg width="128" height="28" viewBox="0 0 128 28" fill="none" xmlns="http://www.w3.org/2000/svg">
<path d="M12.497 9.46773C9.31492 8.21524 5.93346 9.72691 3.03798 11.0837C0.614385 12.2194 0.642762 15.8942 1.6257 18.2585C4.35229 24.8171 12.882 28.5266 19 24.0114" stroke="#5C5C5C" stroke-linecap="round"/>
<path d="M18.6722 1C16.9886 6.61802 18.7683 12.6043 20.7076 17.9306C21.1178 19.0573 22.0635 24.1057 22.1292 23.4889C22.5642 19.4021 20.4287 10.8844 27.2662 13.65C30.6908 15.0352 33.1255 20.719 31.4663 24" stroke="#5C5C5C" stroke-linecap="round"/>
<path d="M43.9973 14.175C40.5854 14.175 34.9022 13.3084 31.989 15.4323C28.3947 18.0528 35.5853 23.2226 37.8343 23.6676C42.6613 24.6228 46.2813 23.7358 44.8868 18.1355C44.5398 16.7422 42.9926 14.1146 44.6008 17.0982C45.5988 18.9496 46.3239 20.8521 48 22.096" stroke="#5C5C5C" stroke-linecap="round"/>
<path d="M48 2C50.971 5.67611 51.2886 12.747 52.2424 17.3617C52.4024 18.1356 54 21.522 54 20.9312" stroke="#5C5C5C" stroke-linecap="round"/>
<path d="M44 13H57" stroke="#5C5C5C" stroke-linecap="round"/>
<path d="M61.2836 5.99325C60.0578 11.3147 63.1768 15.6043 63.5944 20.7836C63.868 24.1771 63.2589 20.526 63.0085 19.2012C62.3715 15.8297 61.5085 12.3995 61.3162 8.96423C61.1064 5.21672 61.6513 3.52705 65.2542 6.57453C65.9916 7.19827 71.3653 12.4328 69.3549 13.0978C67.9778 13.5533 63.3187 12.9686 66.3933 12.9686C70.229 12.9686 73 14.088 73 18.4907C73 21.3712 70.9174 21.3418 68.4436 22.269C67.1983 22.7359 63.7367 23.6495 63.0411 22.269" stroke="#A24DD5" stroke-linecap="round"/>
<path d="M72.0574 2C67.6184 5.1943 78.4966 16.115 80 19" stroke="#A24DD5" stroke-linecap="round"/>
<path d="M85.9341 10.8057C83.0366 10.8057 80.6 13.8178 82.9316 16.2206C86.048 19.4322 90.2594 20.8325 94.6413 19.4963C98.3863 18.3543 99.4587 12.0904 95.4753 10.5383C92.2958 9.29941 87.0539 10.2854 84.7331 12.6107" stroke="#A24DD5" stroke-linecap="round"/>
<path d="M108.069 9C105.304 9 102.706 9.6485 100.903 11.8748C98.7456 14.5397 100.894 15.807 102.76 17.9119C105.435 20.9291 110.105 20.8656 111 16.4745" stroke="#A24DD5" stroke-linecap="round"/>
<path d="M113.165 10C113.165 12.3616 112.449 23.8853 114 25" stroke="#A24DD5" stroke-linecap="round"/>
<path d="M116 20C117.601 16.5678 119.228 14.085 122 12" stroke="#A24DD5" stroke-linecap="round"/>
<path d="M114 20C117.443 21.6334 120.684 23.5852 123.767 25.6838C124.82 26.4004 125.653 27 127 27" stroke="#A24DD5" stroke-linecap="round"/>
</svg>
