<svg width="130" height="46" viewBox="0 0 130 46" fill="none" xmlns="http://www.w3.org/2000/svg">
<path d="M13.4148 26.4752C10.0775 25.7292 6.97005 27.7449 4.31882 29.5325C2.09967 31.0288 2.69517 34.6551 4.03144 36.8394C7.73809 42.8982 16.7383 45.246 22.0857 39.8402" stroke="#5C5C5C" stroke-linecap="round"/>
<path d="M18.2084 17.1555C17.4126 22.9661 20.0953 28.6058 22.8339 33.5687C23.4132 34.6186 25.1271 39.4604 25.0967 38.8408C24.8955 34.7359 21.4702 26.6501 28.6528 28.3267C32.2502 29.1664 35.5334 34.4061 34.4008 37.9039" stroke="#5C5C5C" stroke-linecap="round"/>
<path d="M45.2641 26.2617C41.8932 26.7886 36.1444 26.81 33.5941 29.3583C30.4475 32.5024 38.3503 36.4998 40.641 36.5922C45.5576 36.7905 48.9971 35.3551 46.7545 30.0374C46.1966 28.7144 44.2622 26.3572 46.3119 29.0567C47.5837 30.7318 48.5939 32.4995 50.442 33.4696" stroke="#5C5C5C" stroke-linecap="round"/>
<path d="M47.3389 13.6147C50.8419 16.7879 52.2476 23.7249 53.9026 28.137C54.1801 28.8769 56.2815 31.976 56.1903 31.3923" stroke="#5C5C5C" stroke-linecap="round"/>
<path d="M45.0854 25.1004L57.9295 23.0929" stroke="#5C5C5C" stroke-linecap="round"/>
<path d="M61.0797 15.5088C60.6903 20.9556 64.4343 24.7122 65.6467 29.7648C66.441 33.0754 65.2755 29.5622 64.8235 28.2919C63.6735 25.0593 62.2912 21.8035 61.5707 18.4391C60.7847 14.7689 61.0622 13.0154 65.0924 15.4699C65.9173 15.9723 72.0349 20.3142 70.1513 21.2817C68.861 21.9444 64.1675 22.0862 67.2052 21.6114C70.9949 21.0191 73.9056 21.6971 74.5854 26.0471C75.0302 28.893 72.968 29.1855 70.6672 30.4837C69.5088 31.1372 66.2299 32.5744 65.3294 31.3179" stroke="#A24DD5" stroke-linecap="round"/>
<path d="M71.1077 9.8997C67.2152 13.7412 79.6493 22.8511 81.5802 25.4693" stroke="#A24DD5" stroke-linecap="round"/>
<path d="M86.1777 16.4569C83.315 16.9043 81.3727 20.2566 84.0474 22.2705C87.6223 24.9624 91.9994 25.6955 96.1225 23.6987C99.6462 21.9921 99.7385 15.6377 95.5632 14.7193C92.2305 13.9863 87.2037 15.77 85.2698 18.4257" stroke="#A24DD5" stroke-linecap="round"/>
<path d="M107.768 11.2548C105.037 11.6817 102.57 12.7237 101.132 15.2016C99.4121 18.1677 101.73 19.0881 103.899 20.8796C107.008 23.4475 111.612 22.6638 111.818 18.187" stroke="#A24DD5" stroke-linecap="round"/>
<path d="M112.958 11.4558C113.322 13.7891 114.394 25.2852 116.099 26.147" stroke="#A24DD5" stroke-linecap="round"/>
<path d="M117.303 20.8981C118.355 17.2598 119.579 14.5556 121.995 12.0676" stroke="#A24DD5" stroke-linecap="round"/>
<path d="M115.327 21.207C118.98 22.2891 122.485 23.7169 125.855 25.3143C127.005 25.8597 127.921 26.3235 129.252 26.1155" stroke="#A24DD5" stroke-linecap="round"/>
</svg>
